<?xml version="1.0" encoding="UTF-8"?>
<svg id="logosandtypes_com" data-name="logosandtypes com" xmlns="http://www.w3.org/2000/svg" viewBox="0 0 150 150">
  <defs>
    <style>
      .cls-1 {
        fill: none;
      }
      .cls-2 {
        fill: #ffff;
        fill-rule: evenodd;
      }
    </style>
  </defs>
  <path class="cls-1" d="M0,0H150V150H0V0Z"/>
  <path class="cls-2" d="M23.33,48.62c0-19.34,15.6-35.25,35.33-35.25h29.21c19.51,0,35.33,15.74,35.33,35.25-.02,10.51-4.61,19.56-11,25.58l-6.69,6.67c9.75,5.69,17.61,14.61,17.61,26.71,0,18.12-14.69,31.12-32.8,31.12H40.96v-59.54c-10.43-6.09-17.62-17.48-17.62-30.53ZM58.66,23.16c-14.28,0-25.53,11.47-25.53,25.46s11.26,25.46,25.53,25.46h12.16l-6.76,34.21,41.27-41.05c4.73-4.41,8.09-11.07,8.09-18.61,0-14.2-11.63-25.61-25.53-25.46h-29.21Z"/>
</svg>